<svg xmlns="http://www.w3.org/2000/svg" viewBox="0 0 206.83 204.29"><defs><style>.cls-1{fill:#5e464d;}.cls-2{fill:#fff;}.cls-3{fill:#3fe0c5;}</style></defs><title>truffle-logomark</title><g id="Layer_2" data-name="Layer 2"><g id="Layer_8" data-name="Layer 8"><ellipse class="cls-1" cx="103.17" cy="102.14" rx="100.96" ry="102.14"/><path id="Fill-6" class="cls-2" d="M71.42,192.71c4.13,1.41,18,5.92,18.59,1.51.32-2.42-7-4.9-16.91-10.15a159,159,0,0,1-38.25-28.26A87.82,87.82,0,0,1,8.53,94.75c-.84-30.9,11.24-55.88,31.11-72A101.88,101.88,0,0,0,0,100.9c-.59,22.35,5.66,41.18,17.4,58.32A66.24,66.24,0,0,0,30.12,171.7c11.24,8.51,27.69,16.38,41.3,21"/><path id="Fill-8" class="cls-2" d="M205.52,78.73c-6.26-29.44-25.72-50.05-51.75-64.61,19.9,14.17,47.92,44.3,31.41,70.86-14,21.29-48.05,17.12-66.66,7C96.4,80,68.69,53,96,26.61c17.7-17.08,74,2.07,64.09,27.6-5.78,14.85-28.27,11.55-38.4,4.29C114.25,53.14,108,43.93,111.3,34.42c1.06-3.05.91-7.78-3.4-4.3-3.21,2.6-4.82,6.88-5.39,10.86-4.71,33.29,54.6,59.1,72.2,26.89,9.13-16.72-5.67-41-24.3-50.94-14-7.5-28.57-12.77-46.43-11.49-28.55,2-52.52,19.9-55.53,49.08-3,29,16.39,55.1,39.22,70.71,24,16.4,56.26,27.21,85.78,17.43,26.47-8.77,37.4-39.14,32.07-63.93"/><path id="Fill-10" class="cls-3" d="M168.28,56.18C171.12,37.1,153.87,24,137.94,18.05c-18.78-7-43.59-3.94-57.26,11.61-10,11.42-9.36,28-4.2,41.42,7.8,20.27,25.41,34.92,45.91,41.25,14.57,4.5,32.18,6.46,46.94,1.71,21.53-6.93,28.54-29.38,24.09-49.95a59.08,59.08,0,0,0-4.36-12.88C186.34,45.5,178,33.94,189.5,48a51.42,51.42,0,0,1,3.31,4.91,54.76,54.76,0,0,1,5.59,12.41c6.26,19.2,1.35,41.6-16,53.19-13.31,8.87-30.23,9.93-45.67,7.71-20.7-3-40.21-13-53.76-29.09-12.39-14.67-20.84-35.74-15.75-55,3.73-14.09,15.17-24.61,28.87-29,17.33-5.61,36.41-3,52,6.11,7.81,4.55,15,10.85,18.94,19.11a28.35,28.35,0,0,1,2.85,11.93,24.73,24.73,0,0,1-.39,5c-.11.6-1.38,2.29-1.2.9"/></g></g></svg>