<?xml version="1.0" encoding="UTF-8" standalone="no"?>
<svg width="131px" height="128px" viewBox="0 0 131 128" version="1.1" xmlns="http://www.w3.org/2000/svg" xmlns:xlink="http://www.w3.org/1999/xlink" xmlns:sketch="http://www.bohemiancoding.com/sketch/ns">
    <!-- Generator: Sketch 3.5.2 (25235) - http://www.bohemiancoding.com/sketch -->
    <title>Logo-Truffle</title>
    <desc>Created with Sketch.</desc>
    <defs>
        <path id="path-1" d="M0,0.426 L130.715,0.426 L130.715,128 L0,128"></path>
        <path id="path-3" d="M0,0.426 L130.715,0.426 L130.715,128 L0,128 L0,0.426 Z"></path>
    </defs>
    <g id="Page-1" stroke="none" stroke-width="1" fill="none" fill-rule="evenodd" sketch:type="MSPage">
        <g sketch:type="MSLayerGroup">
            <path d="M100.8574,99.9258 C100.8574,102.0878 82.8804,103.8378 65.6344,103.8378 C48.3884,103.8378 30.4124,102.0878 30.4124,99.9258 C30.4124,97.7658 48.3884,96.0138 65.6344,96.0138 C82.8804,96.0138 100.8574,97.7658 100.8574,99.9258" id="Fill-1" fill="#E6E7E8" sketch:type="MSShapeGroup"></path>
            <g id="Group-5">
                <mask id="mask-2" sketch:name="Clip 4" fill="white">
                    <use xlink:href="#path-1"></use>
                </mask>
                <g id="Clip-4"></g>
                <path d="M117.7813,50.4258 C117.7813,78.0398 95.3943,100.4258 67.7813,100.4258 C51.0803,100.4258 36.2913,92.2378 27.2113,79.6558 C21.2773,71.4358 18.9393,61.3388 18.9403,50.4258 C18.9403,35.2618 24.5313,21.6738 35.1913,12.5048 C43.9433,4.9768 55.3313,0.4258 67.7813,0.4258 C95.3943,0.4258 117.7813,22.8118 117.7813,50.4258" id="Fill-3" fill="#5E464D" sketch:type="MSShapeGroup" mask="url(#mask-2)"></path>
            </g>
            <path d="M53.8936,94.4175 C55.9346,95.0525 62.7846,97.0835 63.0116,94.9175 C63.1366,93.7305 59.5436,92.6085 54.6076,90.1675 C47.5826,86.6945 41.1946,82.2065 35.5246,76.8335 C29.1906,70.8335 22.6076,61.2925 21.8576,47.2925 C21.0476,32.1835 26.6756,19.8005 36.1896,11.6595 C24.9566,20.8285 17.7816,34.7795 17.7816,50.4105 C17.7816,61.3545 21.2466,71.4225 27.2106,79.6565 C29.1966,81.4595 31.3236,83.1725 33.4116,84.6675 C39.0236,88.6875 47.1746,92.3275 53.8936,94.4175" id="Fill-6" fill="#FFFFFF" sketch:type="MSShapeGroup"></path>
            <path d="M118.4668,38.9644 C115.3988,24.5534 105.8718,14.4624 93.1328,7.3374 C102.8738,14.2754 116.5888,29.0214 108.5048,42.0234 C101.6488,52.4484 84.9838,50.4034 75.8768,45.4644 C65.0498,39.5924 51.4838,26.3724 64.8638,13.4504 C73.5248,5.0894 101.1068,14.4644 96.2358,26.9644 C93.4048,34.2294 82.3948,32.6164 77.4388,29.0604 C73.7848,26.4384 70.7128,21.9294 72.3408,17.2754 C72.8628,15.7824 72.7868,13.4654 70.6798,15.1704 C69.1068,16.4434 68.3158,18.5384 68.0398,20.4864 C65.7358,36.7834 94.7688,49.4154 103.3798,33.6494 C107.8508,25.4644 100.6068,13.5894 91.4888,8.7144 C84.6208,5.0424 77.4998,2.4644 68.7578,3.0894 C54.7818,4.0884 43.0478,12.8314 41.5788,27.1154 C40.1228,41.2914 49.5978,54.0844 60.7748,61.7264 C72.5128,69.7534 88.3168,75.0464 102.7678,70.2574 C115.7198,65.9644 121.0708,51.0974 118.4668,38.9644" id="Fill-8" fill="#FFFFFF" sketch:type="MSShapeGroup"></path>
            <path d="M100.2344,27.9272 C101.6234,18.5872 93.1804,12.1762 85.3844,9.2612 C76.1884,5.8212 64.0464,7.3312 57.3504,14.9472 C52.4384,20.5352 52.7724,28.6592 55.2964,35.2182 C59.1144,45.1422 67.7354,52.3152 77.7704,55.4112 C84.9014,57.6132 93.5214,58.5732 100.7504,56.2472 C111.2874,52.8582 114.7194,41.8662 112.5424,31.7982 C112.0734,29.6302 111.3594,27.4952 110.4064,25.4932 C109.0764,22.6982 104.9984,17.0422 110.6194,23.9312 C111.2334,24.6842 111.7204,25.5142 112.2424,26.3332 C113.4294,28.2002 114.2954,30.3142 114.9784,32.4102 C118.0444,41.8102 115.6374,52.7752 107.1294,58.4472 C100.6124,62.7912 92.3294,63.3062 84.7694,62.2222 C74.6384,60.7702 65.0854,55.8372 58.4524,47.9822 C52.3874,40.8022 48.2554,30.4882 50.7474,21.0642 C52.5704,14.1662 58.1724,9.0192 64.8764,6.8492 C73.3604,4.1012 82.6984,5.3762 90.3444,9.8372 C94.1684,12.0682 97.6714,15.1532 99.6164,19.1932 C100.4904,21.0072 100.9934,23.0192 101.0114,25.0352 C101.0184,25.8482 100.9834,26.6872 100.8214,27.4862 C100.7684,27.7782 100.1484,28.6072 100.2344,27.9272" id="Fill-10" fill="#3FE0C5" sketch:type="MSShapeGroup"></path>
            <path d="M0,108.8555 L10.321,108.8555 L10.321,112.3595 L6.919,112.3595 L6.919,127.5295 L3.313,127.5295 L3.313,112.3595 L0,112.3595 L0,108.8555 Z" id="Fill-12" fill="#5F464D" sketch:type="MSShapeGroup"></path>
            <path d="M22.8096,116.1543 L24.9236,116.1543 C26.0536,116.1543 26.8326,116.0063 27.2586,115.7093 C27.6846,115.4123 27.8976,114.9203 27.8976,114.2303 C27.8976,113.8243 27.7916,113.4683 27.5806,113.1683 C27.3706,112.8673 27.0876,112.6503 26.7336,112.5173 C26.3796,112.3863 25.7296,112.3203 24.7846,112.3203 L22.8096,112.3203 L22.8096,116.1543 Z M19.2546,108.8553 L24.0216,108.8553 C26.0836,108.8553 27.5536,109.0393 28.4286,109.4063 C29.3026,109.7753 30.0066,110.3863 30.5396,111.2423 C31.0716,112.0953 31.3386,113.1073 31.3386,114.2753 C31.3386,115.5043 31.0436,116.5293 30.4556,117.3533 C29.8686,118.1793 28.9816,118.8043 27.7966,119.2263 L32.2206,127.5293 L28.3346,127.5293 L24.1356,119.6213 L22.8096,119.6213 L22.8096,127.5293 L19.2546,127.5293 L19.2546,108.8553 Z" id="Fill-14" fill="#5F464D" sketch:type="MSShapeGroup"></path>
            <g id="Group-18">
                <mask id="mask-4" sketch:name="Clip 17" fill="white">
                    <use xlink:href="#path-3"></use>
                </mask>
                <g id="Clip-17"></g>
                <path d="M41.2588,108.8555 L44.8258,108.8555 L44.8258,120.9315 C44.8258,121.9705 44.9168,122.7075 45.0988,123.1385 C45.2808,123.5705 45.5808,123.9145 46.0008,124.1715 C46.4188,124.4295 46.9248,124.5585 47.5178,124.5585 C48.1438,124.5585 48.6838,124.4165 49.1358,124.1265 C49.5888,123.8395 49.9028,123.4745 50.0748,123.0315 C50.2488,122.5855 50.3358,121.7385 50.3358,120.4865 L50.3358,108.8555 L53.9038,108.8555 L53.9038,119.9885 C53.9038,121.8675 53.7978,123.1715 53.5858,123.8985 C53.3738,124.6265 52.9698,125.3305 52.3738,126.0055 C51.7768,126.6835 51.0888,127.1855 50.3108,127.5095 C49.5318,127.8355 48.6258,128.0005 47.5938,128.0005 C46.2388,128.0005 45.0618,127.6875 44.0578,127.0665 C43.0558,126.4435 42.3378,125.6665 41.9058,124.7305 C41.4748,123.7945 41.2588,122.2145 41.2588,119.9885 L41.2588,108.8555 Z" id="Fill-16" fill="#5F464D" sketch:type="MSShapeGroup" mask="url(#mask-4)"></path>
            </g>
            <path d="M64.6611,108.8555 L73.9281,108.8555 L73.9281,112.3205 L68.1891,112.3205 L68.1891,115.7105 L73.9281,115.7105 L73.9281,119.1255 L68.1891,119.1255 L68.1891,127.5295 L64.6611,127.5295 L64.6611,108.8555 Z" id="Fill-19" fill="#5F464D" sketch:type="MSShapeGroup"></path>
            <path d="M83.7676,108.8555 L93.0356,108.8555 L93.0356,112.3205 L87.2966,112.3205 L87.2966,115.7105 L93.0356,115.7105 L93.0356,119.1255 L87.2966,119.1255 L87.2966,127.5295 L83.7676,127.5295 L83.7676,108.8555 Z" id="Fill-21" fill="#5F464D" sketch:type="MSShapeGroup"></path>
            <path d="M102.8398,108.8555 L106.3948,108.8555 L106.3948,124.1405 L111.5738,124.1405 L111.5738,127.5295 L102.8398,127.5295 L102.8398,108.8555 Z" id="Fill-23" fill="#5F464D" sketch:type="MSShapeGroup"></path>
            <path d="M120.5205,108.8555 L130.7145,108.8555 L130.7145,112.3345 L124.0495,112.3345 L124.0495,115.7105 L130.7145,115.7105 L130.7145,119.1255 L124.0495,119.1255 L124.0495,124.0395 L130.7145,124.0395 L130.7145,127.5295 L120.5205,127.5295 L120.5205,108.8555 Z" id="Fill-25" fill="#5F464D" sketch:type="MSShapeGroup"></path>
        </g>
    </g>
</svg>